HIERARCHY
ROOT Hips
{
	OFFSET	0.000000	0.000000	0.000000
	CHANNELS 6 Xposition Yposition Zposition Zrotation Xrotation Yrotation
	JOINT LeftHip
	{
		OFFSET	4.740440	-3.195970	-0.322709
		CHANNELS 3 Zrotation Xrotation Yrotation
		JOINT LeftKnee
		{
			OFFSET	-1.605680	-15.592300	1.005510
			CHANNELS 3 Zrotation Xrotation Yrotation
			JOINT LeftAnkle
			{
				OFFSET	-0.632401	-16.421000	-1.413730
				CHANNELS 3 Zrotation Xrotation Yrotation
				End Site
				{
					OFFSET	0.008423	-3.933000	-1.776750
				}
			}
		}
	}
	JOINT RightHip
	{
		OFFSET	-4.740440	-3.195970	-0.322709
		CHANNELS 3 Zrotation Xrotation Yrotation
		JOINT RightKnee
		{
			OFFSET	1.605680	-15.592300	1.005510
			CHANNELS 3 Zrotation Xrotation Yrotation
			JOINT RightAnkle
			{
				OFFSET	0.632401	-16.421000	-1.413730
				CHANNELS 3 Zrotation Xrotation Yrotation
				End Site
				{
					OFFSET	-0.008423	-3.933000	-1.776750
				}
			}
		}
	}
	JOINT Chest
	{
		OFFSET	0.000000	3.468200	0.078401
		CHANNELS 3 Zrotation Xrotation Yrotation
		JOINT LeftCollar
		{
			OFFSET	3.857650	15.070700	-0.011583
			CHANNELS 3 Zrotation Xrotation Yrotation
			JOINT LeftShoulder
			{
				OFFSET	3.979720	-1.940530	-0.165223
				CHANNELS 3 Zrotation Xrotation Yrotation
				JOINT LeftElbow
				{
					OFFSET	0.615844	-10.986600	-0.673886
					CHANNELS 3 Zrotation Xrotation Yrotation
					JOINT LeftWrist
					{
						OFFSET	0.826843	-10.854500	1.034220
						CHANNELS 3 Zrotation Xrotation Yrotation
						End Site
						{
							OFFSET	-1.679080	-8.456540	0.936217
						}
					}
				}
			}
		}
		JOINT RightCollar
		{
			OFFSET	-3.857650	15.070700	-0.011583
			CHANNELS 3 Zrotation Xrotation Yrotation
			JOINT RightShoulder
			{
				OFFSET	-3.979720	-1.940530	-0.165223
				CHANNELS 3 Zrotation Xrotation Yrotation
				JOINT RightElbow
				{
					OFFSET	-0.615845	-10.986600	-0.673886
					CHANNELS 3 Zrotation Xrotation Yrotation
					JOINT RightWrist
					{
						OFFSET	-0.826843	-10.854500	1.034220
						CHANNELS 3 Zrotation Xrotation Yrotation
						End Site
						{
							OFFSET	1.679080	-8.456540	0.936217
						}
					}
				}
			}
		}
		JOINT Neck
		{
			OFFSET	0.000000	15.101400	0.055730
			CHANNELS 3 Zrotation Xrotation Yrotation
			JOINT Head
			{
				OFFSET	0.000000	4.185120	1.488260
				CHANNELS 3 Zrotation Xrotation Yrotation
				End Site
				{
					OFFSET	0.000000	7.773420	-0.106016
				}
			}
		}
	}
}
MOTION
Frames:     18
Frame Time: 0.016667
-2.316372	38.673462	-6.308753	4.729643	-10.721313	-9.219747	-0.557215	6.860564	4.806036	-1.751931	2.828300	8.696011	-1.745386	1.572778	3.855030	-21.903648	-1.471946	-6.250552	-0.461030	11.133878	-1.492132	14.626466	1.997063	5.191118	-7.367078	12.388244	0.842776	-4.150610	2.477275	6.329588	3.433017	-2.912015	2.346810	-0.772021	-9.872381	-7.141896	10.911591	1.841945	-17.136690	-2.109771	1.054235	5.935035	-2.026428	-2.820093	3.555103	-1.391897	-1.086245	7.765603	-4.295013	-1.559389	10.310020	-1.065916	9.400787	-1.380918	7.241065	1.672917	1.020839	
-2.316381	38.673649	-6.307966	4.735008	-10.705892	-9.219390	-0.560006	6.844490	4.806524	-1.751931	2.828300	8.696011	-1.745386	1.572778	3.855030	-21.908010	-1.488110	-6.251234	-0.458726	11.135089	-1.496971	14.626466	1.997063	5.191118	-7.343456	12.391165	0.821264	-4.156890	2.445018	6.323250	3.441987	-2.892180	2.340678	-0.777248	-9.607233	-7.262589	10.932155	1.746301	-17.093576	-2.137633	1.057769	5.927569	-2.025863	-2.843533	3.575583	-1.391897	-1.086245	7.765603	-4.291148	-1.546486	10.310102	-1.079758	9.368352	-1.405669	7.127286	1.566336	0.930778	
-2.316303	38.673805	-6.307182	4.740498	-10.690104	-9.219028	-0.564707	6.836068	4.805251	-1.750864	2.820087	8.697755	-1.745386	1.572778	3.855030	-21.912882	-1.504933	-6.250650	-0.455742	11.136658	-1.503241	14.626466	1.997063	5.191118	-7.338140	12.380438	0.813811	-4.135599	2.420536	6.298750	3.416389	-2.868882	2.366511	-0.753411	-9.560342	-7.253487	10.954995	1.856605	-17.079588	-2.146372	1.059083	5.925325	-2.025316	-2.850846	3.581690	-1.391897	-1.086245	7.765603	-4.293706	-1.538529	10.312698	-1.088620	9.386553	-1.447184	7.061397	1.495498	0.919946	
-2.315073	38.673626	-6.306710	4.745987	-10.674317	-9.218673	-0.569666	6.828808	4.803705	-1.749652	2.810685	8.699773	-1.745386	1.572778	3.855030	-21.923124	-1.525448	-6.232955	-0.444428	11.142614	-1.527057	14.626466	1.997063	5.191118	-7.325201	12.375234	0.800449	-4.131668	2.396502	6.287530	3.373990	-2.838483	2.382088	-0.747763	-9.341729	-7.244683	11.041072	1.771938	-17.030701	-2.168248	1.067153	5.918651	-2.020134	-2.871295	3.595949	-1.391897	-1.086245	7.765603	-4.296074	-1.517280	10.346758	-1.120127	9.463717	-1.559403	7.023792	1.277439	0.788571	
-2.314218	38.673573	-6.306099	4.751727	-10.657817	-9.218296	-0.574791	6.820909	4.802155	-1.762867	2.795177	8.701061	-1.730253	1.576478	3.856592	-21.931837	-1.545507	-6.220841	-0.435698	11.147197	-1.545421	14.626466	1.997063	5.191118	-7.327793	12.358097	0.798899	-4.131668	2.396502	6.287530	3.291790	-2.799335	2.376194	-0.677513	-9.306193	-7.240888	11.001208	1.855839	-16.938263	-2.172898	1.072295	5.916671	-2.015944	-2.876957	3.597822	-1.391897	-1.086245	7.765603	-4.288603	-1.518566	10.362859	-1.125285	9.490386	-1.600979	7.019945	1.206729	0.752990	
-2.311842	38.673077	-6.305846	4.757793	-10.640373	-9.217903	-0.582234	6.815507	4.790176	-1.776009	2.775172	8.712896	-1.713811	1.580496	3.858282	-21.947897	-1.571429	-6.186113	-0.415819	11.157624	-1.587329	14.626466	1.997063	5.191118	-7.330534	12.339975	0.797265	-4.107013	2.380697	6.263446	3.224312	-2.785013	2.397752	-0.719125	-9.153429	-7.163198	11.022194	1.822962	-16.966997	-2.186035	1.086816	5.911076	-1.997784	-2.868181	3.602396	-1.399752	-1.110586	7.766046	-4.250522	-1.529780	10.434247	-1.128754	9.480544	-1.694185	6.910898	1.169475	0.611136	
-2.312042	38.673244	-6.305313	4.761057	-10.630979	-9.217694	-0.586079	6.799129	4.766323	-1.789892	2.774418	8.736724	-1.697720	1.584428	3.859941	-21.949648	-1.580652	-6.189404	-0.415819	11.157624	-1.587329	14.626466	1.997063	5.191118	-7.332009	12.330220	0.796389	-4.096551	2.374037	6.253177	3.166967	-2.745783	2.401430	-0.723025	-9.152060	-7.170814	10.957089	1.882952	-16.921255	-2.190179	1.091399	5.909308	-1.991927	-2.864913	3.603846	-1.403184	-1.118739	7.776042	-4.235508	-1.533442	10.451454	-1.128875	9.479762	-1.699162	6.880611	1.124176	0.585274	
-2.310637	38.673183	-6.304136	4.771615	-10.600614	-9.217019	-0.594117	6.759653	4.738639	-1.803376	2.774764	8.765139	-1.681755	1.588326	3.861573	-21.964899	-1.617006	-6.169562	-0.400949	11.165373	-1.618634	14.626466	1.997063	5.191118	-7.336781	12.298679	0.793542	-4.096551	2.374037	6.253177	3.112076	-2.677313	2.391430	-0.839000	-9.109314	-7.199393	10.982282	1.838602	-16.946392	-2.190767	1.092040	5.909090	-1.999762	-2.837557	3.618930	-1.399824	-1.147130	7.798050	-4.231651	-1.531392	10.417129	-1.130334	9.470557	-1.758353	6.820067	1.025806	0.577517	
-2.310156	38.673283	-6.303199	4.778862	-10.579762	-9.216559	-0.598107	6.737325	4.737198	-1.804275	2.774829	8.767219	-1.680638	1.588601	3.861689	-21.973120	-1.640421	-6.163126	-0.394235	11.168861	-1.632756	14.626466	1.997063	5.191118	-7.340057	12.277026	0.791588	-4.096551	2.374037	6.253177	3.004895	-2.609120	2.378757	-0.789994	-9.144200	-7.204363	10.867897	1.858458	-17.045122	-2.188560	1.095394	5.912334	-2.007186	-2.814819	3.633091	-1.398304	-1.172768	7.795150	-4.230883	-1.530302	10.401613	-1.131076	9.465913	-1.788193	6.817187	1.029298	0.604044	
-2.308315	38.672993	-6.302579	4.786398	-10.558081	-9.216080	-0.603304	6.710758	4.723247	-1.803405	2.778216	8.782122	-1.680638	1.588601	3.861689	-21.987926	-1.669044	-6.136511	-0.377527	11.177543	-1.667910	14.626466	1.997063	5.191118	-7.343463	12.254508	0.789551	-4.096551	2.374037	6.253177	2.892830	-2.548854	2.366966	-0.872558	-9.078335	-7.239514	10.870482	1.808735	-17.091499	-2.180150	1.108204	5.924728	-2.013158	-2.811035	3.632233	-1.406843	-1.187753	7.823145	-4.226740	-1.517644	10.379807	-1.131718	9.461898	-1.813982	6.788411	0.982388	0.599718	
-2.308439	38.673153	-6.302003	4.790085	-10.547477	-9.215848	-0.608406	6.690104	4.688505	-1.801202	2.786407	8.817880	-1.680638	1.588601	3.861689	-21.990391	-1.679769	-6.138736	-0.376793	11.177918	-1.669453	14.626466	1.997063	5.191118	-7.345132	12.243496	0.788555	-4.096551	2.374037	6.253177	2.850958	-2.551872	2.366580	-0.895340	-9.033267	-7.254770	10.833494	1.800377	-17.137173	-2.177022	1.112970	5.929340	-2.012823	-2.800800	3.639775	-1.412252	-1.201751	7.812190	-4.217832	-1.508068	10.391809	-1.131718	9.461898	-1.813982	6.788411	0.982388	0.599718	
-2.309108	38.673702	-6.300239	4.800918	-10.516303	-9.215176	-0.616087	6.651583	4.667583	-1.799768	2.791555	8.840206	-1.680638	1.588601	3.861689	-21.996233	-1.710373	-6.149693	-0.376793	11.177918	-1.669453	14.626466	1.997063	5.191118	-7.350032	12.211118	0.785631	-4.096551	2.374037	6.253177	2.766472	-2.529893	2.345282	-1.006963	-8.963415	-7.284326	10.732626	1.807001	-17.223558	-2.167130	1.128050	5.943914	-2.020745	-2.799599	3.637102	-1.417658	-1.215788	7.799448	-4.203210	-1.462276	10.393860	-1.131718	9.461898	-1.813982	6.788411	0.982388	0.599718	
-2.309323	38.673885	-6.299665	4.804456	-10.506123	-9.214950	-0.620347	6.633611	4.640945	-1.798116	2.797837	8.867676	-1.680638	1.588601	3.861689	-21.998144	-1.720366	-6.153276	-0.376793	11.177918	-1.669453	14.626466	1.997063	5.191118	-7.351634	12.200543	0.784670	-4.096551	2.374037	6.253177	2.724727	-2.515040	2.321187	-1.022072	-8.946226	-7.275270	10.723392	1.799429	-17.259560	-2.163639	1.133372	5.949057	-2.020921	-2.790224	3.644563	-1.422927	-1.229303	7.786453	-4.203210	-1.462276	10.393860	-1.132311	9.458185	-1.837853	6.788476	0.988924	0.623080	
-2.309951	38.674404	-6.298002	4.814679	-10.476700	-9.214315	-0.627759	6.596682	4.619048	-1.796668	2.803187	8.890922	-1.680638	1.588601	3.861689	-22.003672	-1.749249	-6.163626	-0.376793	11.177918	-1.669453	14.626466	1.997063	5.191118	-7.356261	12.169984	0.781902	-4.096551	2.374037	6.253177	2.590769	-2.489861	2.266869	-1.065617	-8.853432	-7.266346	10.672967	1.756047	-17.359571	-2.153113	1.149424	5.964568	-2.029803	-2.790759	3.641565	-1.428121	-1.242463	7.773061	-4.206015	-1.425556	10.370695	-1.132687	9.455838	-1.852915	6.776206	0.969780	0.625040	
-2.310163	38.674572	-6.297455	4.818029	-10.467056	-9.214110	-0.631315	6.581249	4.599745	-1.795414	2.807787	8.910900	-1.680638	1.588601	3.861689	-22.005480	-1.758709	-6.167020	-0.376793	11.177918	-1.669453	14.626466	1.997063	5.191118	-7.357775	12.159972	0.780992	-4.107623	2.381292	6.264033	2.556736	-2.480807	2.229899	-1.084411	-8.867545	-7.259805	10.668841	1.776663	-17.388308	-2.149518	1.154908	5.969872	-2.030488	-2.783013	3.649108	-1.432933	-1.254507	7.759834	-4.213672	-1.406997	10.283514	-1.132862	9.454748	-1.859906	6.775331	0.970285	0.631052	
-2.309015	38.674564	-6.296302	4.827895	-10.438659	-9.213504	-0.640318	6.567761	4.595603	-1.800589	2.788124	8.915456	-1.672797	1.590517	3.862493	-22.018980	-1.792108	-6.151208	-0.364136	11.184455	-1.695973	14.626466	1.997063	5.191118	-7.362244	12.130479	0.778318	-4.121088	2.390092	6.277298	2.454458	-2.445171	2.128642	-1.110920	-8.861522	-7.211199	10.593212	1.747893	-17.504200	-2.139001	1.170961	5.985380	-2.039854	-2.785403	3.645829	-1.427051	-1.266739	7.747862	-4.200428	-1.411742	10.233088	-1.133359	9.451675	-1.879720	6.775391	0.975698	0.650445	
-2.308610	38.674549	-6.295931	4.831120	-10.429375	-9.213308	-0.646015	6.575848	4.591873	-1.798218	2.769966	8.919365	-1.672797	1.590517	3.862493	-22.023537	-1.803125	-6.145560	-0.359768	11.186705	-1.705140	14.626466	1.997063	5.191118	-7.363703	12.120836	0.777444	-4.135183	2.399312	6.291209	2.440439	-2.460621	2.092467	-1.122949	-8.830419	-7.196832	10.578362	1.740132	-17.540016	-2.135581	1.176185	5.990422	-2.040930	-2.779585	3.652554	-1.426384	-1.277150	7.745183	-4.167408	-1.421380	10.202523	-1.133520	9.450672	-1.886153	6.775411	0.977461	0.656743	
-2.307315	38.674473	-6.294923	4.840251	-10.403086	-9.212758	-0.654737	6.565986	4.588708	-1.795873	2.752038	8.923223	-1.672797	1.590517	3.862493	-22.037142	-1.834784	-6.127404	-0.346325	11.193624	-1.733319	14.626466	1.997063	5.191118	-7.367841	12.093532	0.774970	-4.149078	2.408417	6.304930	2.443079	-2.461642	2.002124	-1.262371	-8.872932	-7.203464	10.527326	1.789189	-17.624361	-2.125484	1.191613	6.005311	-2.052667	-2.792345	3.648358	-1.410363	-1.279638	7.760647	-4.163545	-1.421734	10.164511	-1.134009	9.447643	-1.905607	6.780016	0.999531	0.693211	
